<svg width="20" height="20" viewBox="0 0 20 20" fill="none" xmlns="http://www.w3.org/2000/svg">
<path d="M16.5798 4.35614C17.6692 4.16412 18.4692 4.70688 18.9216 5.60419C19.3766 6.50668 19.5128 7.81569 19.2488 9.31317C18.9847 10.8106 18.3631 12.2526 17.5505 13.3786C16.7424 14.4982 15.6937 15.3672 14.6042 15.5593C13.5151 15.7512 12.7159 15.2084 12.2634 14.3112C12.064 13.9157 11.9261 13.4422 11.8563 12.909C11.7882 12.3898 11.7542 12.1302 11.7233 12.1051C11.6919 12.0796 11.6661 12.075 11.6278 12.0881C11.5901 12.1011 11.4701 12.3307 11.2299 12.7899C11.054 13.1263 10.8586 13.4442 10.6472 13.737C9.96451 14.6828 9.06777 15.4296 8.12768 15.5954C7.18786 15.7609 6.50602 15.2927 6.12377 14.5349C5.9837 14.2571 5.88028 13.9342 5.81598 13.5751C5.73106 13.1009 5.68859 12.8638 5.65804 12.8403C5.62623 12.8157 5.60312 12.8119 5.56504 12.8247C5.52848 12.837 5.41264 13.0444 5.18095 13.4591C5.06165 13.6727 4.93242 13.8762 4.79467 14.0671C4.23742 14.8391 3.49365 15.4665 2.70287 15.6061C1.91198 15.7456 1.34797 15.349 1.03588 14.7302C0.72125 14.1061 0.63046 13.2082 0.810293 12.1882C0.990187 11.1681 1.4143 10.1787 1.97631 9.40009C2.53361 8.62819 3.27737 8.00144 4.06811 7.862C4.85885 7.72274 5.42209 8.11921 5.73412 8.73798C5.79747 8.86365 5.85168 9.00042 5.89639 9.14706C6.03348 9.59666 6.10202 9.82145 6.13408 9.84128C6.16818 9.86236 6.1895 9.86393 6.2263 9.84804C6.26091 9.83311 6.35676 9.6308 6.54847 9.22619C6.76026 8.77917 7.00644 8.35985 7.27904 7.98212C7.9616 7.03647 8.85769 6.2888 9.7976 6.12274C10.7377 5.95698 11.4202 6.42632 11.8025 7.18427C11.9224 7.4221 12.0153 7.69297 12.0797 7.99128C12.1907 8.5049 12.2462 8.76171 12.2783 8.78419C12.3115 8.80736 12.336 8.81009 12.3734 8.79479C12.4098 8.77995 12.5171 8.54897 12.7317 8.087C12.9915 7.52768 13.2964 7.00432 13.6345 6.53583C14.4425 5.41647 15.4906 4.54835 16.5798 4.35614ZM18.9529 8.35126C18.9487 8.43378 18.9432 8.51729 18.9363 8.60171C18.9363 8.60199 18.9365 8.60224 18.9368 8.60224C18.9371 8.60224 18.9373 8.60204 18.9373 8.60179C18.9442 8.51736 18.9488 8.4338 18.9529 8.35126ZM13.9462 6.69403C13.9461 6.69403 13.946 6.69409 13.9459 6.6942C13.7582 6.95438 13.5801 7.23427 13.4151 7.53031C13.415 7.5306 13.4152 7.53095 13.4155 7.53095C13.4157 7.53095 13.4158 7.53086 13.4159 7.53073C13.5808 7.23468 13.7588 6.95485 13.9466 6.69466C13.9467 6.6944 13.9466 6.69403 13.9462 6.69403Z" fill="white"/>
<path d="M16.5798 4.35614L16.5711 4.3069L16.5711 4.3069L16.5798 4.35614ZM18.9216 5.60419L18.9663 5.58168V5.58168L18.9216 5.60419ZM19.2488 9.31317L19.298 9.32186V9.32186L19.2488 9.31317ZM17.5505 13.3786L17.5911 13.4079V13.4079L17.5505 13.3786ZM14.6042 15.5593L14.6129 15.6085L14.6129 15.6085L14.6042 15.5593ZM12.2634 14.3112L12.2188 14.3337L12.2188 14.3337L12.2634 14.3112ZM10.6472 13.737L10.6877 13.7663L10.6877 13.7663L10.6472 13.737ZM8.12768 15.5954L8.13635 15.6446L8.13636 15.6446L8.12768 15.5954ZM6.12377 14.5349L6.07912 14.5574L6.07913 14.5574L6.12377 14.5349ZM4.79467 14.0671L4.83521 14.0963L4.83521 14.0963L4.79467 14.0671ZM2.70287 15.6061L2.71155 15.6554L2.71157 15.6554L2.70287 15.6061ZM1.03588 14.7302L0.991232 14.7527L0.991235 14.7527L1.03588 14.7302ZM0.810293 12.1882L0.761052 12.1795L0.761052 12.1795L0.810293 12.1882ZM1.97631 9.40009L1.93577 9.37082L1.93577 9.37083L1.97631 9.40009ZM4.0681 7.862L4.05943 7.81276L4.05942 7.81276L4.0681 7.862ZM5.73412 8.73798L5.77877 8.71547L5.77877 8.71547L5.73412 8.73798ZM7.27904 7.98212L7.2385 7.95286L7.2385 7.95286L7.27904 7.98212ZM9.7976 6.12274L9.78891 6.0735L9.7889 6.07351L9.7976 6.12274ZM11.8025 7.18427L11.8471 7.16176L11.8471 7.16175L11.8025 7.18427ZM13.6345 6.53583L13.594 6.50657L13.594 6.50657L13.6345 6.53583ZM18.9529 8.35126L19.0028 8.35371L18.9029 8.34874L18.9529 8.35126ZM13.9466 6.69466L13.906 6.6654L13.9466 6.69466ZM13.9459 6.6942L13.9054 6.66494L13.9459 6.6942ZM18.9373 8.60179L18.8874 8.5977L18.9373 8.60179ZM12.0797 7.99128L12.0308 8.00184L12.0797 7.99128ZM12.2783 8.78419L12.2497 8.82518L12.2783 8.78419ZM12.7317 8.087L12.6863 8.06594L12.7317 8.087ZM12.3734 8.79479L12.3923 8.84108L12.3734 8.79479ZM13.4159 7.53073L13.3722 7.50639L13.4159 7.53073ZM6.13408 9.84128L6.16038 9.79875L6.13408 9.84128ZM6.54847 9.22619L6.59365 9.2476L6.54847 9.22619ZM6.2263 9.84804L6.24611 9.89395L6.2263 9.84804ZM18.9363 8.60171L18.9861 8.6058L18.9363 8.60171ZM5.65804 12.8403L5.68859 12.8007L5.65804 12.8403ZM5.18095 13.4591L5.2246 13.4835L5.18095 13.4591ZM5.56504 12.8247L5.581 12.8721V12.8721L5.56504 12.8247ZM13.4151 7.53031L13.3715 7.50598L13.4151 7.53031ZM11.7233 12.1051L11.7548 12.0663L11.7233 12.1051ZM11.6278 12.0881L11.6116 12.0408L11.6278 12.0881ZM16.5798 4.35614L16.5885 4.40538C17.1226 4.31124 17.5829 4.39744 17.9648 4.61511C18.3472 4.8331 18.6542 5.18485 18.877 5.6267L18.9216 5.60419L18.9663 5.58168C18.7366 5.12622 18.4173 4.75794 18.0143 4.52823C17.6107 4.29819 17.1264 4.20902 16.5711 4.3069L16.5798 4.35614ZM18.9216 5.60419L18.877 5.6267C19.3255 6.51644 19.4624 7.81358 19.1995 9.30449L19.2488 9.31317L19.298 9.32186C19.5632 7.8178 19.4277 6.49691 18.9663 5.58168L18.9216 5.60419ZM19.2488 9.31317L19.1995 9.30449C18.9367 10.7945 18.3181 12.2296 17.51 13.3493L17.5505 13.3786L17.5911 13.4079C18.4081 12.2757 19.0326 10.8266 19.298 9.32186L19.2488 9.31317ZM17.5505 13.3786L17.51 13.3493C16.7052 14.4644 15.6664 15.3212 14.5956 15.51L14.6042 15.5593L14.6129 15.6085C15.7209 15.4131 16.7796 14.5321 17.5911 13.4079L17.5505 13.3786ZM14.6042 15.5593L14.5956 15.51C14.0616 15.6041 13.6015 15.5179 13.2198 15.3002C12.8376 15.0822 12.5309 14.7305 12.3081 14.2887L12.2634 14.3112L12.2188 14.3337C12.4484 14.7891 12.7675 15.1574 13.1703 15.3871C13.5736 15.6171 14.0577 15.7063 14.6129 15.6085L14.6042 15.5593ZM12.2634 14.3112L12.3081 14.2887C12.1117 13.8992 11.9751 13.4313 11.9058 12.9025L11.8563 12.909L11.8067 12.9155C11.8771 13.4532 12.0164 13.9323 12.2188 14.3337L12.2634 14.3112ZM11.2299 12.7899L11.1856 12.7668C11.0108 13.1011 10.8166 13.4169 10.6067 13.7077L10.6472 13.737L10.6877 13.7663C10.9006 13.4714 11.0973 13.1515 11.2742 12.8131L11.2299 12.7899ZM10.6472 13.737L10.6067 13.7077C9.92731 14.6489 9.04053 15.3836 8.11899 15.5462L8.12768 15.5954L8.13636 15.6446C9.09501 15.4755 10.0017 14.7167 10.6877 13.7663L10.6472 13.737ZM8.12768 15.5954L8.119 15.5462C7.65969 15.6271 7.26622 15.5528 6.94137 15.3679C6.61593 15.1827 6.3561 14.8844 6.16841 14.5123L6.12377 14.5349L6.07913 14.5574C6.27369 14.9431 6.5459 15.2579 6.8919 15.4548C7.23848 15.6521 7.65584 15.7293 8.13635 15.6446L8.12768 15.5954ZM6.12377 14.5349L6.16841 14.5123C6.03086 14.2396 5.92879 13.9214 5.8652 13.5663L5.81598 13.5751L5.76676 13.5839C5.83177 13.9469 5.93653 14.2746 6.07912 14.5574L6.12377 14.5349ZM5.18095 13.4591L5.1373 13.4347C5.0189 13.6467 4.89069 13.8486 4.75412 14.0378L4.79467 14.0671L4.83521 14.0963C4.97414 13.9038 5.10441 13.6986 5.2246 13.4835L5.18095 13.4591ZM4.79467 14.0671L4.75413 14.0378C4.20018 14.8053 3.46636 15.4205 2.69418 15.5569L2.70287 15.6061L2.71157 15.6554C3.52094 15.5124 4.27467 14.8729 4.83521 14.0963L4.79467 14.0671ZM2.70287 15.6061L2.69419 15.5569C2.30938 15.6248 1.98261 15.5619 1.7146 15.4091C1.44599 15.2558 1.23314 15.0102 1.08052 14.7076L1.03588 14.7302L0.991235 14.7527C1.15072 15.0689 1.37591 15.331 1.66505 15.4959C1.95479 15.6612 2.30548 15.727 2.71155 15.6554L2.70287 15.6061ZM1.03588 14.7302L1.08053 14.7077C0.772333 14.0964 0.680854 13.2103 0.859533 12.1969L0.810293 12.1882L0.761052 12.1795C0.580066 13.2061 0.670166 14.1159 0.991232 14.7527L1.03588 14.7302ZM0.810293 12.1882L0.859533 12.1969C1.03813 11.1841 1.45931 10.2018 2.01685 9.42935L1.97631 9.40009L1.93577 9.37083C1.36928 10.1557 0.94224 11.152 0.761052 12.1795L0.810293 12.1882ZM1.97631 9.40009L2.01685 9.42936C2.57085 8.66204 3.30464 8.04741 4.07679 7.91124L4.0681 7.862L4.05942 7.81276C3.2501 7.95548 2.49638 8.59435 1.93577 9.37082L1.97631 9.40009ZM4.0681 7.862L4.07678 7.91124C4.46152 7.84348 4.78806 7.9063 5.05584 8.05915C5.32423 8.21235 5.53689 8.4579 5.68948 8.76049L5.73412 8.73798L5.77877 8.71547C5.61933 8.39929 5.39434 8.13722 5.10542 7.9723C4.81589 7.80704 4.46543 7.74126 4.05943 7.81276L4.0681 7.862ZM5.73412 8.73798L5.68947 8.76049C5.75143 8.88338 5.8046 9.01748 5.84856 9.16165L5.89639 9.14706L5.94422 9.13248C5.89875 8.98337 5.84352 8.84392 5.77877 8.71547L5.73412 8.73798ZM6.54847 9.22619L6.59365 9.2476C6.80423 8.80316 7.04888 8.38649 7.31959 8.01138L7.27904 7.98212L7.2385 7.95286C6.96401 8.33321 6.7163 8.75519 6.50328 9.20478L6.54847 9.22619ZM7.27904 7.98212L7.31958 8.01138C7.99883 7.07032 8.88496 6.33476 9.8063 6.17198L9.7976 6.12274L9.7889 6.07351C8.83042 6.24285 7.92437 7.00262 7.2385 7.95286L7.27904 7.98212ZM9.7976 6.12274L9.80628 6.17198C10.2657 6.09098 10.6594 6.16539 10.9845 6.35056C11.3101 6.53606 11.5701 6.83462 11.7578 7.20678L11.8025 7.18427L11.8471 7.16175C11.6525 6.77596 11.3802 6.46088 11.034 6.26367C10.6872 6.06613 10.2696 5.98875 9.78891 6.0735L9.7976 6.12274ZM11.8025 7.18427L11.7578 7.20677C11.8756 7.4403 11.9671 7.70706 12.0308 8.00184L12.0797 7.99128L12.1286 7.98072C12.0634 7.67889 11.9692 7.40391 11.8471 7.16176L11.8025 7.18427ZM12.7317 8.087L12.777 8.10807C13.0356 7.55145 13.3389 7.03086 13.6751 6.56509L13.6345 6.53583L13.594 6.50657C13.2538 6.97779 12.9474 7.50391 12.6863 8.06594L12.7317 8.087ZM13.6345 6.53583L13.6751 6.56509C14.4797 5.45034 15.5179 4.59431 16.5885 4.40538L16.5798 4.35614L16.5711 4.3069C15.4634 4.50239 14.4053 5.38261 13.594 6.50657L13.6345 6.53583ZM18.9529 8.35126L18.9029 8.34874C18.8988 8.43076 18.8934 8.51374 18.8865 8.59762L18.9363 8.60171L18.9861 8.6058C18.9931 8.52083 18.9986 8.43681 19.0028 8.35378L18.9529 8.35126ZM18.9373 8.60179L18.9871 8.60588C18.9941 8.52062 18.9988 8.43641 19.0028 8.35371L18.9529 8.35126L18.9029 8.34881C18.8989 8.43119 18.8943 8.5141 18.8874 8.5977L18.9373 8.60179ZM13.9459 6.6942L13.9054 6.66494C13.7164 6.92675 13.5373 7.20828 13.3715 7.50598L13.4151 7.53031L13.4588 7.55465C13.6229 7.26026 13.7999 6.98202 13.9865 6.72346L13.9459 6.6942ZM13.4159 7.53073L13.4596 7.55507C13.6236 7.26067 13.8005 6.98248 13.9871 6.72392L13.9466 6.69466L13.906 6.6654C13.7171 6.92722 13.5381 7.2087 13.3722 7.50639L13.4159 7.53073ZM13.9466 6.69466L13.9871 6.72392C14.0113 6.69045 13.9872 6.64403 13.9462 6.64403V6.69403V6.74403C13.906 6.74403 13.8822 6.69835 13.906 6.6654L13.9466 6.69466ZM13.9459 6.6942L13.9865 6.72346C13.9771 6.7364 13.9621 6.74403 13.9462 6.74403V6.69403V6.64403C13.9301 6.64403 13.9149 6.65179 13.9054 6.66494L13.9459 6.6942ZM18.9368 8.60224V8.65224C18.9631 8.65224 18.985 8.63205 18.9871 8.60588L18.9373 8.60179L18.8874 8.5977C18.8896 8.57203 18.911 8.55224 18.9368 8.55224V8.60224ZM12.0797 7.99128L12.0308 8.00184C12.0863 8.25835 12.128 8.45171 12.16 8.58368C12.1759 8.64954 12.1897 8.70133 12.2018 8.7385C12.2078 8.75698 12.2138 8.77315 12.2199 8.78611C12.223 8.7926 12.2265 8.79923 12.2307 8.80532C12.2345 8.81094 12.2406 8.81883 12.2497 8.82518L12.2783 8.78419L12.307 8.74321C12.312 8.74675 12.314 8.75 12.3134 8.74914C12.3131 8.74874 12.3121 8.74704 12.3103 8.74335C12.3068 8.73596 12.3023 8.72437 12.2969 8.70759C12.286 8.67423 12.273 8.6255 12.2572 8.56015C12.2256 8.42969 12.1841 8.23784 12.1286 7.98072L12.0797 7.99128ZM12.7317 8.087L12.6863 8.06594C12.5789 8.29721 12.4987 8.46973 12.4409 8.58636C12.4119 8.64479 12.3891 8.68803 12.3716 8.71723C12.3629 8.73192 12.3561 8.74187 12.3512 8.74805C12.3446 8.75646 12.3459 8.75203 12.3545 8.74851L12.3734 8.79479L12.3923 8.84108C12.4101 8.83384 12.4227 8.81895 12.4297 8.81008C12.4384 8.79899 12.4477 8.78485 12.4575 8.76857C12.477 8.73585 12.5013 8.6897 12.5305 8.63078C12.589 8.51272 12.6698 8.33876 12.777 8.10807L12.7317 8.087ZM12.2783 8.78419L12.2497 8.82518C12.2701 8.83943 12.2924 8.85068 12.3187 8.85361C12.345 8.85654 12.3693 8.85049 12.3923 8.84108L12.3734 8.79479L12.3545 8.74851C12.3401 8.7544 12.3334 8.75463 12.3298 8.75423C12.3262 8.75382 12.3198 8.75213 12.307 8.74321L12.2783 8.78419ZM13.4155 7.53095V7.58095C13.4338 7.58095 13.4507 7.57102 13.4596 7.55507L13.4159 7.53073L13.3722 7.50639C13.3809 7.49071 13.3975 7.48095 13.4155 7.48095V7.53095ZM5.89639 9.14706L5.84856 9.16165C5.91702 9.38614 5.96865 9.5555 6.00719 9.67114C6.02642 9.72884 6.04278 9.77438 6.05665 9.80716C6.06356 9.82346 6.07035 9.83784 6.07711 9.84941C6.0826 9.8588 6.09238 9.87428 6.10778 9.8838L6.13408 9.84128L6.16038 9.79875C6.16777 9.80332 6.1684 9.80743 6.16347 9.79898C6.1598 9.79271 6.15491 9.78276 6.14874 9.76817C6.13646 9.73917 6.12111 9.6967 6.10206 9.63953C6.06403 9.52541 6.01285 9.35758 5.94422 9.13248L5.89639 9.14706ZM6.54847 9.22619L6.50328 9.20478C6.40729 9.40739 6.33575 9.55836 6.28388 9.66063C6.25789 9.71187 6.23743 9.74971 6.2217 9.77528C6.21379 9.78814 6.20776 9.79676 6.20344 9.80207C6.19768 9.80915 6.19887 9.80543 6.20649 9.80214L6.2263 9.84804L6.24611 9.89395C6.26239 9.88693 6.27414 9.87362 6.281 9.86519C6.28929 9.855 6.29793 9.84221 6.30687 9.82768C6.32484 9.79847 6.34681 9.75764 6.37307 9.70586C6.4257 9.60209 6.49795 9.4496 6.59365 9.2476L6.54847 9.22619ZM6.13408 9.84128L6.10778 9.8838C6.12795 9.89628 6.14984 9.90651 6.17552 9.90839C6.20119 9.91027 6.22434 9.90335 6.24611 9.89395L6.2263 9.84804L6.20649 9.80214C6.19146 9.80862 6.18555 9.80886 6.18283 9.80866C6.18012 9.80846 6.1743 9.80736 6.16038 9.79875L6.13408 9.84128ZM18.9363 8.60171L18.8865 8.59762C18.8841 8.627 18.9073 8.65224 18.9368 8.65224V8.60224V8.55224C18.9658 8.55224 18.9885 8.57698 18.9861 8.6058L18.9363 8.60171ZM5.81598 13.5751L5.8652 13.5663C5.82279 13.3295 5.79081 13.1509 5.76559 13.0286C5.75301 12.9676 5.74186 12.9193 5.73167 12.8844C5.7266 12.867 5.7214 12.8516 5.71589 12.839C5.71141 12.8289 5.70325 12.812 5.68859 12.8007L5.65804 12.8403L5.6275 12.8799C5.62047 12.8744 5.62033 12.8701 5.62435 12.8793C5.62734 12.8861 5.63113 12.8968 5.63566 12.9123C5.64468 12.9433 5.65518 12.9883 5.66765 13.0488C5.69253 13.1695 5.72424 13.3465 5.76676 13.5839L5.81598 13.5751ZM5.18095 13.4591L5.2246 13.4835C5.34061 13.2758 5.42709 13.121 5.48916 13.0165C5.52025 12.9642 5.54456 12.9255 5.56296 12.8996C5.57221 12.8866 5.57919 12.8779 5.58416 12.8725C5.59083 12.8653 5.58931 12.8693 5.581 12.8721L5.56504 12.8247L5.54908 12.7773C5.53163 12.7832 5.51849 12.7963 5.51092 12.8044C5.50165 12.8144 5.49178 12.8271 5.48141 12.8417C5.46056 12.8711 5.43457 12.9126 5.40318 12.9654C5.34026 13.0714 5.25298 13.2276 5.1373 13.4347L5.18095 13.4591ZM5.65804 12.8403L5.68859 12.8007C5.66927 12.7858 5.64793 12.7735 5.62216 12.7692C5.5964 12.7648 5.57221 12.7695 5.54908 12.7773L5.56504 12.8247L5.581 12.8721C5.59596 12.867 5.60236 12.8672 5.60563 12.8678C5.60889 12.8683 5.61501 12.8702 5.6275 12.8799L5.65804 12.8403ZM13.4151 7.53031L13.3715 7.50598C13.3528 7.5395 13.3769 7.58095 13.4155 7.58095V7.53095V7.48095C13.4534 7.48095 13.4772 7.52169 13.4588 7.55465L13.4151 7.53031ZM11.8563 12.909L11.9058 12.9025C11.8719 12.6432 11.8463 12.4478 11.8253 12.314C11.8148 12.2473 11.8053 12.1946 11.7962 12.1567C11.7917 12.1378 11.7869 12.1211 11.7818 12.1077C11.7777 12.097 11.7699 12.0786 11.7548 12.0663L11.7233 12.1051L11.6918 12.1439C11.6843 12.1379 11.6844 12.1331 11.6884 12.1434C11.6913 12.151 11.6948 12.1628 11.6989 12.1799C11.7071 12.2139 11.7161 12.2633 11.7265 12.3295C11.7472 12.4617 11.7726 12.6556 11.8067 12.9155L11.8563 12.909ZM11.2299 12.7899L11.2742 12.8131C11.3944 12.5832 11.4841 12.4117 11.5485 12.296C11.5807 12.238 11.606 12.1952 11.6252 12.1664C11.6348 12.1519 11.6421 12.1421 11.6474 12.1361C11.6546 12.1279 11.653 12.1324 11.6441 12.1354L11.6278 12.0881L11.6116 12.0408C11.5932 12.0471 11.5797 12.0616 11.5721 12.0702C11.5627 12.081 11.5526 12.0949 11.5419 12.111C11.5204 12.1432 11.4936 12.1889 11.4611 12.2474C11.396 12.3645 11.3055 12.5374 11.1856 12.7668L11.2299 12.7899ZM11.7233 12.1051L11.7548 12.0663C11.7351 12.0503 11.7131 12.0376 11.6869 12.0329C11.6606 12.0282 11.6356 12.0326 11.6116 12.0408L11.6278 12.0881L11.6441 12.1354C11.6583 12.1305 11.6654 12.1307 11.6694 12.1314C11.6734 12.1321 11.68 12.1344 11.6918 12.1439L11.7233 12.1051Z" fill="white"/>
</svg>
